<svg width="19" height="20" viewBox="0 0 20 21" xmlns="http://www.w3.org/2000/svg">
    <path fill-rule="evenodd" clip-rule="evenodd" d="M13.3333 8L7.77778 12.4444V3.55556L13.3333 8ZM2.22222 0H17.7778C19 0 20 1 20 2.22222V13.7778C20 15 19 16 17.7778 16H11.885L14.2682 18.8598C14.6218 19.2841 14.5645 19.9147 14.1402 20.2682C13.7159 20.6218 13.0853 20.5645 12.7318 20.1402L9.75 16.562L6.76822 20.1402C6.41466 20.5645 5.78409 20.6218 5.35982 20.2682C4.93554 19.9147 4.87821 19.2841 5.23178 18.8598L7.61496 16H2.22222C1 16 0 15 0 13.7778V2.22222C0 1 1 0 2.22222 0ZM2.22222 13.7778H17.7778V2.22222H2.22222V13.7778Z"/>
</svg>