<svg width="21" height="18" viewBox="0 0 22 19" xmlns="http://www.w3.org/2000/svg">
    <path fill-rule="evenodd" clip-rule="evenodd" d="M20.6453 5.5585L17.0283 4.25559C16.8759 4.2007 16.7039 4.27914 16.6455 4.43017L13.2845 13.1108L14.1453 15.7556C14.2596 16.1093 14.6807 16.2609 15.0074 16.0661L17.4548 14.613L20.8158 5.93242C20.8743 5.78138 20.7977 5.61339 20.6453 5.5585ZM19.2831 0.880764L21.2399 1.58566C21.8495 1.80522 22.1546 2.47448 21.9219 3.08134L21.3772 4.48836C21.3187 4.6394 21.1467 4.71783 20.9943 4.66294L17.3774 3.36003C17.225 3.30514 17.1484 3.13715 17.2069 2.98611L17.7516 1.57909C17.9883 0.973681 18.6736 0.661205 19.2831 0.880764ZM10.6142 12.8025L14.7886 2.84821C13.8401 2.62062 12.8308 2.49796 11.784 2.49796C6.24285 2.49796 1.75304 5.93501 1.75304 10.1785C1.75304 11.825 2.43302 13.3419 3.58562 14.5948C2.98452 15.9433 0.742171 17.2336 0.420251 17.4188C0.39608 17.4327 0.382736 17.4404 0.381725 17.4414C0.275629 17.5518 0.246694 17.715 0.309387 17.8591C0.37208 18.0031 0.507112 18.0895 0.661434 18.0895C2.42649 18.0895 5.36514 17.2686 6.41646 16.659C7.96933 17.4126 9.80673 17.8591 11.784 17.8591C12.0419 17.8591 12.2976 17.8516 12.5506 17.837L10.6142 12.8025Z"/>
</svg>